<svg xmlns="http://www.w3.org/2000/svg" width="109" height="22" viewBox="0 0 109 22">
    <g fill="#3C3C46" fill-rule="evenodd">
        <path d="M36.702 13.196c0 .534-.07.996-.21 1.387a3.27 3.27 0 0 1-.587 1.03 4.078 4.078 0 0 1-.88.772c-.335.22-.698.424-1.09.615L33 15.413c.354-.191.626-.38.817-.565.191-.186.33-.372.42-.558a1.55 1.55 0 0 0 .153-.544c.014-.176.02-.35.02-.522V4.13h2.292v9.067zm1.746-9.067h2.304v9.682h-2.304V4.129zm10.029 9.682H46.73l-1.16-2.746a31.155 31.155 0 0 0-.16-.422c-.08-.205-.168-.439-.266-.7a400.747 400.747 0 0 1-.58-1.567v1.845c0 .334-.002.648-.006.944-.005.296-.012.53-.021.7l-.07 1.946h-2.123l.558-9.682h1.984l2.179 5.577c.065.172.151.413.258.722.107.31.212.646.314 1.009.103-.353.208-.684.315-.994.107-.31.198-.556.272-.737l2.18-5.577h1.94l.56 9.682h-2.166l-.083-1.945c-.01-.181-.017-.42-.021-.715a59.598 59.598 0 0 1 0-1.924c.004-.329.007-.612.007-.85-.075.2-.156.426-.245.679-.088.252-.18.498-.272.736-.093.238-.182.46-.266.665l-.195.48-1.187 2.874zM57.36 4c.335 0 .66.029.971.086.312.057.603.129.873.214.27.086.514.184.733.294.22.11.408.221.566.336l-.81 1.573a10.182 10.182 0 0 1-.405-.222 7.353 7.353 0 0 0-.51-.264 3.98 3.98 0 0 0-.559-.215 1.92 1.92 0 0 0-.551-.086c-.326 0-.569.07-.727.208a.664.664 0 0 0-.237.522c.009.162.046.305.111.429.066.124.163.245.294.364.13.12.298.236.503.35.205.115.456.234.754.358.372.162.698.33.978.5.279.172.51.368.691.587.182.22.319.467.412.744a3 3 0 0 1 .14.958c0 .439-.077.85-.23 1.237a2.925 2.925 0 0 1-.664 1.008c-.289.286-.638.51-1.048.672-.41.163-.87.244-1.383.244-.363 0-.71-.034-1.04-.1a5.956 5.956 0 0 1-.915-.258 7.377 7.377 0 0 1-.768-.336 8.125 8.125 0 0 1-.6-.336l.753-1.688c.066.048.187.127.364.236a7.23 7.23 0 0 0 1.285.622c.232.086.442.13.628.13.391 0 .678-.094.86-.28.18-.186.272-.45.272-.793 0-.344-.115-.604-.343-.78-.228-.176-.551-.35-.97-.522a8.421 8.421 0 0 1-1.09-.543 3.605 3.605 0 0 1-.803-.644 2.566 2.566 0 0 1-.503-.8 2.799 2.799 0 0 1-.175-1.03c0-.43.087-.813.259-1.152.172-.338.403-.629.691-.872.289-.243.622-.43.999-.558A3.672 3.672 0 0 1 57.36 4zM70.98 9.663h-3.268v4.148h-2.305V4.129h2.305v3.79h3.268v-3.79h2.29v9.682h-2.29V9.663zM79.08 4c.736 0 1.37.114 1.9.343.53.23.969.553 1.313.973.345.42.598.932.761 1.537.163.606.245 1.285.245 2.038 0 .744-.09 1.423-.273 2.038a4.395 4.395 0 0 1-.817 1.58 3.68 3.68 0 0 1-1.369 1.023c-.549.243-1.196.365-1.941.365-.736 0-1.371-.108-1.907-.322a3.255 3.255 0 0 1-1.32-.944 3.982 3.982 0 0 1-.761-1.509c-.163-.591-.244-1.268-.244-2.03 0-.744.09-1.428.272-2.053a4.605 4.605 0 0 1 .817-1.616 3.636 3.636 0 0 1 1.376-1.051C77.686 4.124 78.336 4 79.08 4zm-.195 1.673c-.605 0-1.045.289-1.32.866-.275.576-.412 1.375-.412 2.395 0 .486.03.93.09 1.33.061.4.164.746.308 1.037.144.29.342.517.594.68.251.161.568.242.95.242.605 0 1.042-.276 1.312-.83.27-.552.406-1.339.406-2.359 0-.486-.03-.934-.091-1.344a3.705 3.705 0 0 0-.308-1.066 1.704 1.704 0 0 0-.593-.7c-.252-.167-.564-.25-.936-.25zM90.283 4.13h2.305v9.682h-1.97l-2.696-4.176c-.056-.086-.132-.21-.23-.372l-.308-.508c-.107-.176-.209-.348-.307-.515a18.96 18.96 0 0 0-.244-.407 177.795 177.795 0 0 0 .077 1.144c.014.21.025.415.034.615.01.2.014.367.014.5L87 13.811h-2.304V4.129h1.885l2.724 4.147.28.45c.102.167.207.337.314.508a24.72 24.72 0 0 1 .538.901c-.01-.152-.02-.329-.028-.529-.01-.2-.021-.407-.035-.622a33.63 33.63 0 0 1-.035-.622c-.01-.2-.014-.377-.014-.53l-.042-3.703zm4.037 0h6.02v1.73h-3.716v2.074h3.087l-.265 1.702h-2.822v2.445h3.911v1.73H94.32V4.13zm9.372 5.963l-2.92-5.963h2.431l1.676 3.704 1.718-3.704H109l-3.017 6.092v3.59h-2.29v-3.719z"/>
        <path fill-rule="nonzero" d="M17.575 11.006c-.905.118-1.772.21-2.637.357-.145.024-.31.235-.38.396-.738 1.376-1.414 2.789-2.2 4.13-1.076 1.86-2.418 3.48-4.246 4.648a8.32 8.32 0 0 1-5.506 1.401 4.508 4.508 0 0 1-1.044-.254c-1.918-.707-1.773-2.86-.688-3.842a5.5 5.5 0 0 1 2.32-1.209c1.674-.443 3.366-.815 5.051-1.211.543-.13 1.082-.27 1.627-.369a.834.834 0 0 0 .65-.524c.81-1.713 1.6-3.44 2.48-5.125.644-1.24 1.379-2.479 2.11-3.669 1.047-1.769 2.587-2.971 4.41-3.857.44-.214.885-.412 1.415-.66a1.212 1.212 0 0 0-.257-.05c-2.903.279-5.788.65-8.48 1.875-1.194.542-2.315 1.19-3.158 2.23A3.613 3.613 0 0 0 8.22 7.79c.068 1.373 1.502 2.169 2.82 1.583a2.479 2.479 0 0 0 1.047-3.687.285.285 0 0 1-.031-.251c.097.064.185.14.263.226.551.75.628 1.747.198 2.572-.743 1.64-2.987 2.593-4.688 2.017-1.435-.486-2.104-1.927-1.617-3.473.323-.96.948-1.791 1.781-2.368 1.485-1.118 3.192-1.775 4.958-2.265a32.761 32.761 0 0 1 5.847-1.02c.725-.061 1.463-.067 2.17-.194.848-.152 1.679-.41 2.518-.62a1.5 1.5 0 0 1 .62-.031c.153.044.274.16.325.31a.462.462 0 0 1-.235.365 2.033 2.033 0 0 1-.707.183 3.198 3.198 0 0 1-.93 0c-.836-.167-1.502.198-2.14.62a7.26 7.26 0 0 0-2.29 2.699c-1.072 2.085-2.08 4.214-3.12 6.327a.74.74 0 0 0-.019.183l1.518-.18c.037 0 .075-.028.109-.025.901.087 1.27-.412 1.599-1.199a12.779 12.779 0 0 1 4.39-5.695 13.014 13.014 0 0 1 3.647-1.896 4.744 4.744 0 0 1 2.48-.214c.507.115.929.331 1.115.868.16.468.018.987-.357 1.31a.998.998 0 0 1-1.239.016 3.644 3.644 0 0 1-.784-.775c-.694-.93-1.385-1.097-2.262-.353a10.535 10.535 0 0 0-1.86 2.017 21.166 21.166 0 0 0-3.426 8.233 15.772 15.772 0 0 0-.152 2.978c.028.406.154.8.369 1.146a.877.877 0 0 0 1.335.347 4.195 4.195 0 0 0 1.221-1.11c.93-1.437 1.803-2.93 2.699-4.4.077-.126.161-.25.242-.377l.093.037a.598.598 0 0 1-.025.214c-.93 1.738-1.86 3.486-3.099 5.017a5.869 5.869 0 0 1-1.887 1.605c-1.645.82-3.179.13-3.631-1.649a7.437 7.437 0 0 1-.05-3.17c.158-.877.35-1.757.54-2.705zm-7.312 4.214a1.165 1.165 0 0 0-.264-.021c-1.326.35-2.665.666-3.975 1.069a6.984 6.984 0 0 0-2.81 1.459 2.64 2.64 0 0 0-.847 2.522c.133.771.77 1.355 1.55 1.42.67.069 1.345-.073 1.93-.406a6.866 6.866 0 0 0 2.479-2.56c.682-1.103 1.277-2.284 1.937-3.483z"/>
    </g>
</svg>
