<svg xmlns="http://www.w3.org/2000/svg" width="214" height="56" viewBox="0 0 214 56">
    <g fill="#000" fill-rule="evenodd">
        <path fill-rule="nonzero" d="M44.737 28.016c-2.303.3-4.512.536-6.712.907-.37.063-.789.6-.97 1.01-1.878 3.501-3.597 7.098-5.6 10.513-2.737 4.733-6.152 8.858-10.806 11.831a21.177 21.177 0 0 1-14.016 3.565 11.476 11.476 0 0 1-2.658-.647c-4.882-1.798-4.511-7.28-1.75-9.78a14 14 0 0 1 5.907-3.076c4.259-1.128 8.565-2.074 12.856-3.084 1.38-.331 2.753-.686 4.141-.938a2.122 2.122 0 0 0 1.656-1.333c2.059-4.362 4.07-8.755 6.31-13.046 1.64-3.155 3.51-6.31 5.371-9.339 2.666-4.503 6.586-7.564 11.224-9.82 1.12-.544 2.256-1.048 3.605-1.68a3.084 3.084 0 0 0-.655-.125c-7.39.71-14.734 1.656-21.588 4.771-3.036 1.38-5.891 3.03-8.037 5.68a9.197 9.197 0 0 0-2.09 6.404c.174 3.494 3.825 5.52 7.178 4.03a6.31 6.31 0 0 0 2.665-9.386.726.726 0 0 1-.078-.639c.247.162.473.356.67.576a6.207 6.207 0 0 1 .505 6.547c-1.893 4.172-7.604 6.601-11.934 5.134-3.652-1.238-5.355-4.906-4.117-8.841a11.98 11.98 0 0 1 4.535-6.026c3.778-2.848 8.124-4.52 12.62-5.766a83.393 83.393 0 0 1 14.883-2.595c1.846-.158 3.723-.173 5.522-.497 2.16-.386 4.274-1.04 6.412-1.577a3.817 3.817 0 0 1 1.577-.08c.389.113.698.407.829.79-.032.39-.257.74-.6.93a5.174 5.174 0 0 1-1.798.466 8.14 8.14 0 0 1-2.366 0c-2.13-.426-3.826.504-5.45 1.577a18.48 18.48 0 0 0-5.83 6.87c-2.728 5.308-5.292 10.727-7.942 16.106-.035.152-.05.309-.047.465l3.865-.457c.094 0 .189-.071.276-.063 2.295.22 3.234-1.05 4.07-3.053A32.527 32.527 0 0 1 57.546 9.843a33.127 33.127 0 0 1 9.283-4.827 12.075 12.075 0 0 1 6.31-.544c1.294.292 2.366.844 2.84 2.209a3.092 3.092 0 0 1-.907 3.336 2.54 2.54 0 0 1-3.155.04 9.275 9.275 0 0 1-1.996-1.972c-1.767-2.367-3.526-2.793-5.758-.9a26.817 26.817 0 0 0-4.732 5.135 53.878 53.878 0 0 0-8.723 20.957 40.146 40.146 0 0 0-.387 7.58 6.365 6.365 0 0 0 .939 2.918 2.232 2.232 0 0 0 3.4.883 10.68 10.68 0 0 0 3.107-2.824c2.366-3.66 4.59-7.461 6.87-11.2.197-.323.41-.639.615-.962l.236.095c.013.183-.009.368-.063.544-2.366 4.425-4.732 8.873-7.887 12.77a14.939 14.939 0 0 1-4.803 4.085c-4.189 2.09-8.093.331-9.244-4.196a18.93 18.93 0 0 1-.126-8.069c.402-2.232.89-4.472 1.372-6.885zM26.123 38.743a2.966 2.966 0 0 0-.67-.056c-3.376.892-6.784 1.696-10.12 2.721a17.778 17.778 0 0 0-7.154 3.715 6.72 6.72 0 0 0-2.153 6.42 4.37 4.37 0 0 0 3.944 3.613 8.219 8.219 0 0 0 4.913-1.033 17.478 17.478 0 0 0 6.31-6.515c1.735-2.808 3.25-5.813 4.93-8.865z"/>
        <path d="M83.672 32.27c0 .944-.125 1.762-.377 2.454a5.76 5.76 0 0 1-1.058 1.822 7.312 7.312 0 0 1-1.586 1.366c-.604.388-1.259.75-1.964 1.088L77 36.191c.638-.337 1.129-.67 1.473-.999.344-.329.596-.658.755-.987.16-.329.252-.65.277-.961.026-.312.038-.62.038-.924V16.228h4.13V32.27zm3.148-16.042h4.154v17.13H86.82v-17.13zm18.079 17.13h-3.148l-2.09-4.859a54.49 54.49 0 0 0-.29-.746 114.7 114.7 0 0 1-.478-1.24 700.672 700.672 0 0 1-1.045-2.77v3.264c0 .59-.004 1.147-.012 1.67-.009.522-.021.936-.038 1.24l-.126 3.44h-3.827l1.007-17.13h3.575l3.928 9.869c.118.303.273.73.466 1.277.193.549.382 1.143.567 1.784.184-.624.373-1.21.566-1.758.193-.548.357-.983.491-1.303l3.928-9.868h3.5l1.007 17.13h-3.902l-.151-3.442c-.017-.32-.03-.742-.038-1.265a121.067 121.067 0 0 1 0-3.403c.008-.582.012-1.084.012-1.505-.134.354-.28.754-.44 1.201-.16.447-.323.882-.491 1.304-.168.421-.328.813-.479 1.176l-.352.848-2.14 5.086zM120.913 16c.604 0 1.187.05 1.75.152.562.101 1.086.228 1.573.38.487.151.928.324 1.322.518a7.45 7.45 0 0 1 1.02.595l-1.46 2.783a18.464 18.464 0 0 1-.73-.392c-.286-.16-.592-.317-.92-.468a7.258 7.258 0 0 0-1.007-.38 3.52 3.52 0 0 0-.995-.152c-.587 0-1.023.123-1.309.367a1.165 1.165 0 0 0-.428.924c.017.286.084.54.202.759.117.22.293.434.528.645.235.21.537.418.907.62.369.202.822.413 1.36.632.67.287 1.258.582 1.762.886.504.304.919.65 1.246 1.037.328.388.575.827.743 1.316.168.49.252 1.054.252 1.695a5.77 5.77 0 0 1-.416 2.19 5.168 5.168 0 0 1-1.196 1.783c-.52.506-1.15.902-1.888 1.19-.739.286-1.57.43-2.493.43-.654 0-1.28-.06-1.876-.178a10.895 10.895 0 0 1-1.649-.455 13.428 13.428 0 0 1-1.385-.595c-.42-.21-.78-.409-1.082-.594l1.36-2.986c.117.084.335.223.654.417.319.194.68.388 1.083.582.403.194.814.367 1.233.519.42.152.798.228 1.133.228.706 0 1.222-.165 1.549-.494.327-.329.491-.797.491-1.404 0-.607-.206-1.067-.617-1.379-.411-.312-.994-.62-1.75-.923a15.296 15.296 0 0 1-1.964-.962 6.478 6.478 0 0 1-1.448-1.139 4.528 4.528 0 0 1-.906-1.417c-.21-.522-.315-1.13-.315-1.821 0-.76.155-1.438.466-2.037a4.923 4.923 0 0 1 1.246-1.544c.52-.43 1.12-.759 1.8-.986a6.733 6.733 0 0 1 2.154-.342zm24.55 10.02h-5.893v7.338h-4.154v-17.13h4.154v6.705h5.892v-6.705h4.13v17.13h-4.13V26.02zM160.065 16c1.326 0 2.468.202 3.425.607.956.405 1.745.979 2.366 1.72.621.743 1.079 1.65 1.373 2.72.293 1.072.44 2.274.44 3.606 0 1.316-.163 2.518-.49 3.606-.328 1.088-.819 2.02-1.474 2.796-.654.776-1.477 1.379-2.467 1.81-.99.43-2.157.644-3.5.644-1.326 0-2.472-.19-3.437-.569-.965-.38-1.758-.936-2.38-1.67-.62-.734-1.078-1.623-1.372-2.67-.294-1.045-.44-2.243-.44-3.592 0-1.316.163-2.526.49-3.631.328-1.105.819-2.058 1.474-2.86a6.542 6.542 0 0 1 2.48-1.86c.998-.438 2.17-.657 3.512-.657zm-.352 2.96c-1.091 0-1.885.51-2.38 1.531-.495 1.02-.743 2.433-.743 4.238 0 .86.055 1.645.164 2.354.11.708.294 1.32.554 1.834.26.514.617.915 1.07 1.202.453.287 1.024.43 1.712.43 1.091 0 1.88-.49 2.367-1.468.487-.978.73-2.37.73-4.175 0-.86-.054-1.653-.163-2.378-.11-.725-.294-1.354-.554-1.885a3.03 3.03 0 0 0-1.07-1.24c-.454-.295-1.016-.443-1.687-.443zm20.546-2.732h4.154v17.13h-3.55l-4.86-7.389c-.1-.152-.239-.37-.415-.658-.176-.286-.36-.586-.554-.898a67.91 67.91 0 0 1-.554-.91 33.425 33.425 0 0 0-.44-.722 702.557 702.557 0 0 1 .138 2.024c.025.371.046.734.063 1.088.017.355.025.65.025.886l.076 6.579h-4.155v-17.13h3.4l4.91 7.337.503.797c.185.296.373.595.566.899a43.596 43.596 0 0 1 .97 1.594c-.017-.27-.034-.582-.05-.936a58.398 58.398 0 0 0-.063-1.101c-.026-.38-.047-.746-.063-1.1a20.056 20.056 0 0 1-.026-.937l-.075-6.553zm7.277 0h10.852v3.061h-6.698v3.67h5.565l-.479 3.01h-5.086v4.327h7.05v3.062h-11.204v-17.13zm16.895 10.55l-5.263-10.55h4.382l3.021 6.553 3.097-6.553H214l-5.439 10.779v6.35h-4.13V26.78z"/>
    </g>
</svg>
